<?xml version="1.0"?>
<svg xmlns="http://www.w3.org/2000/svg" xmlns:xlink="http://www.w3.org/1999/xlink" version="1.1" id="Layer_1" x="0px" y="0px" viewBox="0 0 512 512" style="enable-background:new 0 0 512 512;" xml:space="preserve" width="512" height="512"><g><g>
	<path d="M437.02,74.98C388.667,26.629,324.38,0,256,0S123.333,26.629,74.98,74.98C26.629,123.333,0,187.62,0,256   s26.629,132.667,74.98,181.02C123.333,485.371,187.62,512,256,512s132.667-26.629,181.02-74.98C485.371,388.667,512,324.38,512,256   S485.371,123.333,437.02,74.98z M404.768,86.02l-63.84,63.841C317.638,131.188,288.103,120,256,120s-61.638,11.188-84.927,29.86   l-63.84-63.841C147.011,51.162,199.078,30,256,30S364.989,51.162,404.768,86.02z M362.14,340.927   C380.812,317.638,392,288.103,392,256s-11.188-61.638-29.86-84.927l21.362-21.362c51.211,61.341,51.211,151.236,0,212.578   L362.14,340.927z M128.498,362.289c-51.211-61.341-51.211-151.236,0-212.578l21.362,21.362C131.188,194.362,120,223.897,120,256   s11.188,61.638,29.86,84.927L128.498,362.289z M150,256c0-58.448,47.551-106,106-106s106,47.552,106,106s-47.551,106-106,106   S150,314.448,150,256z M30,256c0-56.922,21.162-108.989,56.02-148.767l21.183,21.184c-62.813,73.152-62.813,182.016,0,255.168   L86.02,404.767C51.162,364.989,30,312.922,30,256z M107.232,425.98l63.84-63.841C194.362,380.812,223.897,392,256,392   s61.638-11.188,84.927-29.86l63.84,63.841C364.989,460.838,312.922,482,256,482S147.011,460.838,107.232,425.98z M425.98,404.767   l-21.183-21.184c62.813-73.152,62.813-182.016,0-255.168l21.183-21.184C460.838,147.011,482,199.078,482,256   S460.838,364.989,425.98,404.767z" data-original="#000000" class="active-path" style="fill:#55BC7E" data-old_color="#000000"/>
	<path d="M256,332c41.907,0,76-34.094,76-76s-34.093-76-76-76s-76,34.094-76,76S214.093,332,256,332z M256,210   c25.364,0,46,20.636,46,46s-20.636,46-46,46s-46-20.636-46-46S230.636,210,256,210z" data-original="#000000" class="active-path" style="fill:#55BC7E" data-old_color="#000000"/>
</g></g> </svg>
