<?xml version="1.0"?>
<svg xmlns="http://www.w3.org/2000/svg" xmlns:xlink="http://www.w3.org/1999/xlink" version="1.1" id="Capa_1" x="0px" y="0px" viewBox="0 0 434.988 434.988" style="enable-background:new 0 0 434.988 434.988;" xml:space="preserve" width="512" height="512" class=""><g><g>
	<g>
		<path d="M353.214,36.48h-30.24V8c0-4.418-3.582-8-8-8h-233.2c-4.418,0-8,3.582-8,8v382.16c-0.006,3.059,1.733,5.854,4.48,7.2    c2.776,1.34,6.074,0.967,8.48-0.96l25.44-20.4v50.4c0.02,4.418,3.618,7.983,8.037,7.963c1.788-0.008,3.521-0.615,4.923-1.723    L237.774,344l110.4,89.2c3.431,2.784,8.469,2.258,11.253-1.173c1.162-1.433,1.794-3.223,1.787-5.067V44.48    C361.214,40.062,357.632,36.48,353.214,36.48z M120.174,36.48c-4.418,0-8,3.582-8,8v311.36l-22.4,17.76V16h217.2v20.48H120.174z     M345.214,409.92l-102.24-82.72c-2.923-2.34-7.077-2.34-10,0l-104.8,82.96V52.48h217.04V409.92z" data-original="#000000" class="active-path" style="fill:#344763" data-old_color="#000000"/>
	</g>
</g><g>
	<g>
		<path d="M236.734,85.04c-25.67-0.133-46.587,20.57-46.719,46.239c-0.133,25.67,20.57,46.587,46.239,46.719    c25.67,0.133,46.587-20.57,46.719-46.239c0-0.08,0.001-0.16,0.001-0.239C282.974,105.943,262.31,85.172,236.734,85.04z     M236.734,161.92c-16.833,0.133-30.586-13.406-30.719-30.239c-0.133-16.833,13.406-30.586,30.239-30.719    c16.833-0.132,30.587,13.406,30.719,30.239c0.001,0.106,0.001,0.213,0.001,0.319C266.93,148.229,253.442,161.788,236.734,161.92z" data-original="#000000" class="active-path" style="fill:#344763" data-old_color="#000000"/>
	</g>
</g></g> </svg>
