<?xml version="1.0" encoding="utf-8"?>
<!-- Generator: Adobe Illustrator 22.0.0, SVG Export Plug-In . SVG Version: 6.00 Build 0)  -->
<svg version="1.1" id="Layer_1" xmlns="http://www.w3.org/2000/svg" xmlns:xlink="http://www.w3.org/1999/xlink" x="0px" y="0px"
	 viewBox="0 0 111.4 75.7" style="enable-background:new 0 0 111.4 75.7;" xml:space="preserve">
<style type="text/css">
	.st0{fill:#814F45;}
	.st1{filter:url(#Adobe_OpacityMaskFilter);}
	.st2{clip-path:url(#XMLID_2_);}
	.st3{enable-background:new    ;}
	.st4{clip-path:url(#XMLID_4_);fill:url(#XMLID_5_);}
	.st5{clip-path:url(#XMLID_2_);mask:url(#XMLID_3_);}
	.st6{clip-path:url(#XMLID_6_);}
	.st7{clip-path:url(#XMLID_7_);fill:url(#XMLID_8_);}
</style>
<g id="XMLID_1345_">
	<path id="XMLID_1379_" class="st0" d="M81.3,66.7c2.9,0,4.5,0.3,6-2.7c0.3-0.5,0.4-1.1,0.4-1.9c0-4.1-3.4-8-9-8
		c-5.6,0-10.5,4-10.5,10.6c0,6.6,5.2,10.8,11.8,10.8c2.7,0,4.6-0.5,6-1.1l0.6-5.4c-1.7,1-3.5,1.6-5.8,1.6c-3.5,0-5.4-2-5.9-3.8
		C75,66.9,80.8,66.7,81.3,66.7 M74.7,62.5c0.4-2,2.1-3.5,4.1-3.5c1.9,0,3.1,1.4,3.1,3c0,0.2,0,0.3,0,0.4H74.7z"/>
	<path id="XMLID_1376_" class="st0" d="M100.5,54.1c-6.1,0-11,4.4-11,10.7c0,6.3,4.9,10.6,11,10.6c6,0,10.9-4.4,10.9-10.6
		C111.4,58.5,106.5,54.1,100.5,54.1 M100.5,69.9c-2.5,0-4.7-2.1-4.7-5.1c0-3,2.1-5.2,4.7-5.2c2.5,0,4.7,2.2,4.7,5.2
		C105.1,67.8,102.9,69.9,100.5,69.9"/>
	<path id="XMLID_1342_" class="st0" d="M51.8,71.2l-2.9,4.5c-2.7-0.2-6-2.6-6-7.3V43.3h4c0,0,0,0,0,0c0,0,0.1,0,0.1,0
		c1.2,0,2.2,0.9,2.3,2.1l0,0v0c0,0,0,0.1,0,0.1c0,0,0,0.1,0,0.1V68C49.3,69.9,50.4,70.9,51.8,71.2"/>
	<path id="XMLID_1341_" class="st0" d="M66.2,60.1l0.5-5.3h-6.3v-9.2l0,0c-0.1-1.2-1.1-2.1-2.3-2.1c0,0-0.1,0-0.1,0v0h-3.8v11.4h0
		l-0.1,8.6v5c0,4,3,6.9,7.5,6.9c1.3,0,2.4-0.2,3.1-0.5l0.5-5.3c-0.6,0.2-1.2,0.3-2.1,0.3c-1.5,0-2.5-0.8-2.5-2.3v-7.3H66.2z"/>
	<path id="XMLID_1340_" class="st0" d="M26.3,43.6c-1.4-2.9-2.7-6.1-3.8-9.4c-0.1-0.4-0.6-0.7-1.1-0.7c-0.6,0-1.1,0.3-1.1,0.7h0
		c-1.6,4.4-3.3,8.8-5.1,12.2L6.4,65C12.8,59.1,20,51.8,26.3,43.6"/>
	<path id="XMLID_1339_" class="st0" d="M25.4,58.2c0.1,0.2,0.2,0.4,0.3,0.7l6.1,12.7h0c0,0,0,0,0,0l0.1,0.1c0.3,0.7,1.9,3.4,5.6,3.5
		l0.6,0h0l3.3,0L30.3,51.9C28.7,54,27.1,56.1,25.4,58.2"/>
	<g id="XMLID_1346_">
		<defs>
			<path id="XMLID_1329_" d="M54.7,0.6L54.7,0.6C46.5,17.3,37,33.5,25.4,48.1C18.1,57.4,9.8,66.3,0,73c0,0,2.4,2.3,6.1,2.3
				c8.4-7.2,15.6-15.7,22.1-24.5C39.5,35.5,48.7,18.7,56.8,1.5c0-0.1,0-0.1,0-0.2c0.1-0.6-0.3-1.2-1-1.3c-0.1,0-0.1,0-0.2,0
				C55.3,0,54.9,0.2,54.7,0.6"/>
		</defs>
		<clipPath id="XMLID_2_">
			<use xlink:href="#XMLID_1329_"  style="overflow:visible;"/>
		</clipPath>
		<defs>
			<filter id="Adobe_OpacityMaskFilter" filterUnits="userSpaceOnUse" x="-8.2" y="-6.4" width="73.3" height="88">
				<feColorMatrix  type="matrix" values="1 0 0 0 0  0 1 0 0 0  0 0 1 0 0  0 0 0 1 0"/>
			</filter>
		</defs>
		<mask maskUnits="userSpaceOnUse" x="-8.2" y="-6.4" width="73.3" height="88" id="XMLID_3_">
			<g id="XMLID_11_" class="st1">
				<rect id="XMLID_16_" x="-3.9" y="-3" class="st2" width="64.8" height="81.2"/>
				<g id="XMLID_12_" class="st3">
					<g id="XMLID_13_">
						<defs>
							
								<rect id="XMLID_14_" x="-1.9" y="-1.4" transform="matrix(0.9986 -5.232964e-02 5.232964e-02 0.9986 -1.9307 1.5423)" width="60.8" height="78.2"/>
						</defs>
						<clipPath id="XMLID_4_" class="st2">
							<use xlink:href="#XMLID_14_"  style="overflow:visible;"/>
						</clipPath>
						
							<linearGradient id="XMLID_5_" gradientUnits="userSpaceOnUse" x1="-367.7079" y1="331.5001" x2="-367.1576" y2="331.5001" gradientTransform="matrix(6.9006 131.6708 -131.6708 6.9006 46212.8828 46130.4102)">
							<stop  offset="0" style="stop-color:#1D1D1B"/>
							<stop  offset="6.134030e-03" style="stop-color:#1D1D1B"/>
							<stop  offset="0.1655" style="stop-color:#494947"/>
							<stop  offset="0.4678" style="stop-color:#969695"/>
							<stop  offset="0.7174" style="stop-color:#CFCFCE"/>
							<stop  offset="0.9015" style="stop-color:#F2F2F2"/>
							<stop  offset="1" style="stop-color:#FFFFFF"/>
						</linearGradient>
						<polygon id="XMLID_15_" class="st4" points="-8.2,-2.8 -3.8,81.6 65.2,78 60.7,-6.4 						"/>
					</g>
				</g>
			</g>
		</mask>
		<g id="XMLID_1366_" class="st5">
			<g id="XMLID_1367_">
				<defs>
					<rect id="XMLID_1336_" x="-3.9" y="-3" width="64.8" height="81.2"/>
				</defs>
				<clipPath id="XMLID_6_">
					<use xlink:href="#XMLID_1336_"  style="overflow:visible;"/>
				</clipPath>
				<g id="XMLID_1369_" class="st6">
					<defs>
						
							<rect id="XMLID_1337_" x="-1.9" y="-1.4" transform="matrix(0.9986 -5.232964e-02 5.232964e-02 0.9986 -1.9307 1.5423)" width="60.8" height="78.2"/>
					</defs>
					<clipPath id="XMLID_7_">
						<use xlink:href="#XMLID_1337_"  style="overflow:visible;"/>
					</clipPath>
					
						<linearGradient id="XMLID_8_" gradientUnits="userSpaceOnUse" x1="-367.7079" y1="331.5001" x2="-367.1576" y2="331.5001" gradientTransform="matrix(6.9006 131.6708 -131.6708 6.9006 46212.8828 46130.4102)">
						<stop  offset="0" style="stop-color:#FFFFFF"/>
						<stop  offset="6.134030e-03" style="stop-color:#FFFFFF"/>
						<stop  offset="0.1672" style="stop-color:#F5F7E3"/>
						<stop  offset="0.5163" style="stop-color:#DCE39A"/>
						<stop  offset="1" style="stop-color:#B7C42D"/>
					</linearGradient>
					<polygon id="XMLID_1338_" class="st7" points="-8.2,-2.8 -3.8,81.6 65.2,78 60.7,-6.4 					"/>
				</g>
			</g>
		</g>
	</g>
</g>
</svg>
